<svg width="13" height="13" viewBox="0 0 13 13" fill="none" xmlns="http://www.w3.org/2000/svg">
<path d="M11.0375 5.06L11.9031 10.685C11.9305 10.863 11.919 11.0449 11.8696 11.2181C11.8202 11.3913 11.7339 11.5518 11.6166 11.6885C11.4994 11.8253 11.354 11.9351 11.1904 12.0104C11.0268 12.0858 10.8488 12.1248 10.6687 12.125H2.3312C2.15097 12.125 1.97287 12.0861 1.80911 12.0108C1.64534 11.9356 1.49979 11.8258 1.38242 11.689C1.26505 11.5522 1.17866 11.3917 1.12914 11.2184C1.07963 11.0451 1.06818 10.8631 1.09558 10.685L1.9612 5.06C2.00661 4.76474 2.15625 4.49551 2.38303 4.30106C2.60981 4.10662 2.89873 3.99982 3.19745 4H9.80245C10.1011 3.99996 10.3898 4.10683 10.6165 4.30127C10.8431 4.4957 10.9927 4.76485 11.0381 5.06H11.0375Z" stroke="black" stroke-width="1.5" stroke-linecap="round" stroke-linejoin="round"/>
<path d="M7.75 2.125C7.75 1.79348 7.6183 1.47554 7.38388 1.24112C7.14946 1.0067 6.83152 0.875 6.5 0.875C6.16848 0.875 5.85054 1.0067 5.61612 1.24112C5.3817 1.47554 5.25 1.79348 5.25 2.125" stroke="black" stroke-width="1.5" stroke-linecap="round" stroke-linejoin="round"/>
</svg>
