<svg width="13" height="13" viewBox="0 0 13 13" fill="none" xmlns="http://www.w3.org/2000/svg">
<path d="M12.5205 3.15431C12.3242 2.69967 12.041 2.28769 11.687 1.94142C11.3327 1.59411 10.915 1.31811 10.4565 1.12843C9.98117 0.930957 9.4713 0.82988 8.95654 0.831065C8.23438 0.831065 7.52979 1.02882 6.91748 1.40235C6.771 1.49171 6.63184 1.58985 6.5 1.69679C6.36816 1.58985 6.229 1.49171 6.08252 1.40235C5.47022 1.02882 4.76562 0.831065 4.04346 0.831065C3.52344 0.831065 3.01953 0.930674 2.54346 1.12843C2.0835 1.31886 1.66895 1.59278 1.31299 1.94142C0.958491 2.2873 0.675309 2.69938 0.479492 3.15431C0.275879 3.62745 0.171875 4.12989 0.171875 4.64698C0.171875 5.13478 0.271484 5.64308 0.469238 6.16017C0.634766 6.5923 0.87207 7.04054 1.17529 7.49317C1.65576 8.20948 2.31641 8.95655 3.13672 9.71388C4.49609 10.9692 5.84229 11.8364 5.89941 11.8716L6.24658 12.0942C6.40039 12.1924 6.59815 12.1924 6.75195 12.0942L7.09912 11.8716C7.15625 11.835 8.50098 10.9692 9.86182 9.71388C10.6821 8.95655 11.3428 8.20948 11.8232 7.49317C12.1265 7.04054 12.3652 6.5923 12.5293 6.16017C12.7271 5.64308 12.8267 5.13478 12.8267 4.64698C12.8281 4.12989 12.7241 3.62745 12.5205 3.15431ZM6.5 10.9356C6.5 10.9356 1.28516 7.59425 1.28516 4.64698C1.28516 3.15431 2.52002 1.94435 4.04346 1.94435C5.11426 1.94435 6.04297 2.542 6.5 3.41505C6.95703 2.542 7.88574 1.94435 8.95654 1.94435C10.48 1.94435 11.7148 3.15431 11.7148 4.64698C11.7148 7.59425 6.5 10.9356 6.5 10.9356Z" fill="black"/>
</svg>
